<mxfile host="app.diagrams.net" agent="Mozilla/5.0 (Windows NT 10.0; Win64; x64) AppleWebKit/537.36 (KHTML, like Gecko) Chrome/130.0.0.0 Safari/537.36" version="24.8.3">
  <diagram name="Page-1" id="TO6kB4z5MBMpsq3OqiZG">
    <mxGraphModel dx="1050" dy="557" grid="1" gridSize="10" guides="1" tooltips="1" connect="1" arrows="1" fold="1" page="1" pageScale="1" pageWidth="850" pageHeight="1100" math="0" shadow="0">
      <root>
        <mxCell id="0" />
        <mxCell id="1" parent="0" />
        <mxCell id="7ROorTEk_Ga1uGUvGw2F-33" value="" style="rounded=0;whiteSpace=wrap;html=1;" parent="1" vertex="1">
          <mxGeometry x="30" y="180" width="920" height="400" as="geometry" />
        </mxCell>
        <mxCell id="B1_j8ZbPT3PzYgEqwr39-3" value="" style="image;aspect=fixed;perimeter=ellipsePerimeter;html=1;align=center;shadow=0;dashed=0;fontColor=#4277BB;labelBackgroundColor=default;fontSize=12;spacingTop=3;image=img/lib/ibm/infrastructure/mobile_backend.svg;" parent="1" vertex="1">
          <mxGeometry x="651" y="260" width="62" height="62" as="geometry" />
        </mxCell>
        <mxCell id="B1_j8ZbPT3PzYgEqwr39-4" value="" style="sketch=0;points=[[0,0,0],[0.25,0,0],[0.5,0,0],[0.75,0,0],[1,0,0],[0,1,0],[0.25,1,0],[0.5,1,0],[0.75,1,0],[1,1,0],[0,0.25,0],[0,0.5,0],[0,0.75,0],[1,0.25,0],[1,0.5,0],[1,0.75,0]];outlineConnect=0;fontColor=#232F3E;fillColor=#C925D1;strokeColor=#ffffff;dashed=0;verticalLabelPosition=bottom;verticalAlign=top;align=center;html=1;fontSize=12;fontStyle=0;aspect=fixed;shape=mxgraph.aws4.resourceIcon;resIcon=mxgraph.aws4.documentdb_with_mongodb_compatibility;" parent="1" vertex="1">
          <mxGeometry x="651" y="450" width="59" height="59" as="geometry" />
        </mxCell>
        <mxCell id="7ROorTEk_Ga1uGUvGw2F-20" value="" style="edgeStyle=orthogonalEdgeStyle;rounded=0;orthogonalLoop=1;jettySize=auto;html=1;" parent="1" source="7ROorTEk_Ga1uGUvGw2F-13" target="B1_j8ZbPT3PzYgEqwr39-3" edge="1">
          <mxGeometry relative="1" as="geometry" />
        </mxCell>
        <mxCell id="7ROorTEk_Ga1uGUvGw2F-13" value="" style="outlineConnect=0;dashed=0;verticalLabelPosition=bottom;verticalAlign=top;align=center;html=1;shape=mxgraph.aws3.kinesis;fillColor=#F58534;gradientColor=none;" parent="1" vertex="1">
          <mxGeometry x="490" y="250" width="67.5" height="81" as="geometry" />
        </mxCell>
        <mxCell id="7ROorTEk_Ga1uGUvGw2F-19" value="" style="edgeStyle=orthogonalEdgeStyle;rounded=0;orthogonalLoop=1;jettySize=auto;html=1;" parent="1" source="7ROorTEk_Ga1uGUvGw2F-14" target="7ROorTEk_Ga1uGUvGw2F-13" edge="1">
          <mxGeometry relative="1" as="geometry" />
        </mxCell>
        <mxCell id="7ROorTEk_Ga1uGUvGw2F-14" value="" style="outlineConnect=0;dashed=0;verticalLabelPosition=bottom;verticalAlign=top;align=center;html=1;shape=mxgraph.aws3.aws_iot;fillColor=#5294CF;gradientColor=none;" parent="1" vertex="1">
          <mxGeometry x="320" y="250" width="67.5" height="81" as="geometry" />
        </mxCell>
        <mxCell id="7ROorTEk_Ga1uGUvGw2F-15" value="AWS Kinesis" style="html=1;whiteSpace=wrap;" parent="1" vertex="1">
          <mxGeometry x="468.75" y="210" width="110" height="30" as="geometry" />
        </mxCell>
        <mxCell id="7ROorTEk_Ga1uGUvGw2F-16" value="&amp;nbsp;AWS IOT" style="html=1;whiteSpace=wrap;" parent="1" vertex="1">
          <mxGeometry x="298.75" y="210" width="110" height="30" as="geometry" />
        </mxCell>
        <mxCell id="7ROorTEk_Ga1uGUvGw2F-18" value="" style="edgeStyle=orthogonalEdgeStyle;rounded=0;orthogonalLoop=1;jettySize=auto;html=1;" parent="1" source="7ROorTEk_Ga1uGUvGw2F-17" target="7ROorTEk_Ga1uGUvGw2F-14" edge="1">
          <mxGeometry relative="1" as="geometry" />
        </mxCell>
        <mxCell id="7ROorTEk_Ga1uGUvGw2F-17" value="portable device" style="shape=step;perimeter=stepPerimeter;whiteSpace=wrap;html=1;fixedSize=1;" parent="1" vertex="1">
          <mxGeometry x="60" y="251" width="170" height="80" as="geometry" />
        </mxCell>
        <mxCell id="7ROorTEk_Ga1uGUvGw2F-21" value="Monitoring System Backend" style="html=1;whiteSpace=wrap;" parent="1" vertex="1">
          <mxGeometry x="630" y="210" width="110" height="30" as="geometry" />
        </mxCell>
        <mxCell id="7ROorTEk_Ga1uGUvGw2F-22" value="MongoDB" style="html=1;whiteSpace=wrap;" parent="1" vertex="1">
          <mxGeometry x="630" y="520" width="110" height="30" as="geometry" />
        </mxCell>
        <mxCell id="7ROorTEk_Ga1uGUvGw2F-27" value="" style="endArrow=classic;html=1;rounded=0;exitX=0.5;exitY=1;exitDx=0;exitDy=0;entryX=0.5;entryY=0;entryDx=0;entryDy=0;entryPerimeter=0;" parent="1" source="B1_j8ZbPT3PzYgEqwr39-3" target="B1_j8ZbPT3PzYgEqwr39-4" edge="1">
          <mxGeometry width="50" height="50" relative="1" as="geometry">
            <mxPoint x="570" y="450" as="sourcePoint" />
            <mxPoint x="620" y="400" as="targetPoint" />
          </mxGeometry>
        </mxCell>
        <mxCell id="7ROorTEk_Ga1uGUvGw2F-28" value="" style="endArrow=classic;html=1;rounded=0;" parent="1" edge="1">
          <mxGeometry width="50" height="50" relative="1" as="geometry">
            <mxPoint x="720" y="280" as="sourcePoint" />
            <mxPoint x="720" y="320" as="targetPoint" />
            <Array as="points">
              <mxPoint x="773" y="280" />
              <mxPoint x="773" y="320" />
            </Array>
          </mxGeometry>
        </mxCell>
        <mxCell id="7ROorTEk_Ga1uGUvGw2F-29" value="1. data upload to aws iot core" style="html=1;whiteSpace=wrap;" parent="1" vertex="1">
          <mxGeometry x="220" y="340" width="121.25" height="40" as="geometry" />
        </mxCell>
        <mxCell id="7ROorTEk_Ga1uGUvGw2F-30" value="2. trigger kinesis&amp;nbsp;" style="html=1;whiteSpace=wrap;" parent="1" vertex="1">
          <mxGeometry x="387.5" y="340" width="120" height="40" as="geometry" />
        </mxCell>
        <mxCell id="7ROorTEk_Ga1uGUvGw2F-31" value="&lt;div&gt;4. validate device id&amp;nbsp;&lt;/div&gt;" style="html=1;whiteSpace=wrap;" parent="1" vertex="1">
          <mxGeometry x="790" y="260" width="120" height="72" as="geometry" />
        </mxCell>
        <mxCell id="7ROorTEk_Ga1uGUvGw2F-32" value="5. pass portable data to database to save" style="html=1;whiteSpace=wrap;" parent="1" vertex="1">
          <mxGeometry x="700" y="370" width="120" height="40" as="geometry" />
        </mxCell>
        <mxCell id="Gr79XBlmeAd5cP14u92l-1" value="3. call the backend when kinesis trigger" style="html=1;whiteSpace=wrap;" vertex="1" parent="1">
          <mxGeometry x="557.5" y="330" width="120" height="40" as="geometry" />
        </mxCell>
      </root>
    </mxGraphModel>
  </diagram>
</mxfile>
